<mxfile host="Electron" modified="2025-01-19T04:05:31.823Z" agent="Mozilla/5.0 (Windows NT 10.0; Win64; x64) AppleWebKit/537.36 (KHTML, like Gecko) draw.io/22.1.2 Chrome/114.0.5735.289 Electron/25.9.4 Safari/537.36" etag="J_G3VcVg6zq1hNupo9mV" version="22.1.2" type="device">
  <diagram name="Page-1" id="wbPJ9EK_KLiIS2jN_ytF">
    <mxGraphModel dx="749" dy="806" grid="1" gridSize="10" guides="1" tooltips="1" connect="1" arrows="1" fold="1" page="1" pageScale="1" pageWidth="850" pageHeight="1100" math="0" shadow="0">
      <root>
        <mxCell id="0" />
        <mxCell id="1" parent="0" />
        <mxCell id="9_VkVOxQN_Y5TilVJxGr-1" value="从System config 上收集状态并执行&lt;br&gt;scheduler" style="rounded=0;whiteSpace=wrap;html=1;" vertex="1" parent="1">
          <mxGeometry x="330" y="90" width="120" height="60" as="geometry" />
        </mxCell>
        <mxCell id="9_VkVOxQN_Y5TilVJxGr-5" value="检查上次调度产生的action的完成情况" style="rounded=0;whiteSpace=wrap;html=1;" vertex="1" parent="1">
          <mxGeometry x="110" y="220" width="120" height="60" as="geometry" />
        </mxCell>
        <mxCell id="9_VkVOxQN_Y5TilVJxGr-7" value="成功" style="shape=parallelogram;perimeter=parallelogramPerimeter;whiteSpace=wrap;html=1;fixedSize=1;" vertex="1" parent="1">
          <mxGeometry x="20" y="350" width="120" height="60" as="geometry" />
        </mxCell>
        <mxCell id="9_VkVOxQN_Y5TilVJxGr-8" value="失败?&lt;br&gt;修改一些状态&lt;br&gt;(这些状态只有调度器可以修改)" style="rounded=0;whiteSpace=wrap;html=1;" vertex="1" parent="1">
          <mxGeometry x="190" y="350" width="120" height="60" as="geometry" />
        </mxCell>
        <mxCell id="9_VkVOxQN_Y5TilVJxGr-10" value="处理资源池:&lt;br&gt;增加可用资源&lt;br&gt;标记故障资源&lt;br&gt;恢复故障资源" style="rounded=0;whiteSpace=wrap;html=1;" vertex="1" parent="1">
          <mxGeometry x="390" y="330" width="120" height="60" as="geometry" />
        </mxCell>
        <mxCell id="9_VkVOxQN_Y5TilVJxGr-12" value="node是否有变化?" style="rounded=0;whiteSpace=wrap;html=1;" vertex="1" parent="1">
          <mxGeometry x="390" y="220" width="120" height="50" as="geometry" />
        </mxCell>
        <mxCell id="9_VkVOxQN_Y5TilVJxGr-13" value="pod是否有变化?" style="rounded=0;whiteSpace=wrap;html=1;" vertex="1" parent="1">
          <mxGeometry x="570" y="220" width="120" height="50" as="geometry" />
        </mxCell>
        <mxCell id="9_VkVOxQN_Y5TilVJxGr-14" value="反实例化pod" style="rounded=0;whiteSpace=wrap;html=1;" vertex="1" parent="1">
          <mxGeometry x="570" y="330" width="120" height="50" as="geometry" />
        </mxCell>
        <mxCell id="9_VkVOxQN_Y5TilVJxGr-15" value="实例化pod" style="rounded=0;whiteSpace=wrap;html=1;" vertex="1" parent="1">
          <mxGeometry x="570" y="420" width="120" height="50" as="geometry" />
        </mxCell>
        <mxCell id="9_VkVOxQN_Y5TilVJxGr-16" value="检查pod_instance" style="rounded=0;whiteSpace=wrap;html=1;" vertex="1" parent="1">
          <mxGeometry x="820" y="220" width="120" height="50" as="geometry" />
        </mxCell>
        <mxCell id="9_VkVOxQN_Y5TilVJxGr-17" value="是否有故障?" style="rounded=0;whiteSpace=wrap;html=1;" vertex="1" parent="1">
          <mxGeometry x="820" y="330" width="120" height="50" as="geometry" />
        </mxCell>
        <mxCell id="9_VkVOxQN_Y5TilVJxGr-18" value="是否需要调整资源限制" style="rounded=0;whiteSpace=wrap;html=1;" vertex="1" parent="1">
          <mxGeometry x="820" y="420" width="120" height="50" as="geometry" />
        </mxCell>
      </root>
    </mxGraphModel>
  </diagram>
</mxfile>
